<svg width="313" height="126" viewBox="0 0 313 126" fill="none" xmlns="http://www.w3.org/2000/svg">
<path d="M47.888 70.1562C47.2239 70.1562 46.8235 69.7363 46.8235 69.043V56.9336C46.8235 56.2109 47.2728 55.752 47.9954 55.752C48.513 55.752 48.8157 55.9277 49.177 56.4355L56.1106 66.2988H56.1888V56.8652C56.1888 56.1719 56.5989 55.752 57.2532 55.752C57.9173 55.752 58.3177 56.1719 58.3177 56.8652V69.0234C58.3177 69.7363 57.8978 70.1562 57.1653 70.1562C56.6282 70.1562 56.345 69.9902 55.9837 69.4824L49.0403 59.6191H48.9524V69.043C48.9524 69.7363 48.552 70.1562 47.888 70.1562ZM64.7163 70.1953C61.6206 70.1953 59.8042 68.2324 59.8042 64.9121C59.8042 61.6504 61.6597 59.541 64.5698 59.541C67.3042 59.541 69.189 61.5137 69.189 64.3164C69.189 65 68.7983 65.3906 68.144 65.3906H61.9331V65.4395C61.9331 67.3145 62.9878 68.4863 64.6675 68.4863C65.8198 68.4863 66.5425 68.0859 67.3237 67.0215C67.5483 66.7578 67.7632 66.6504 68.0659 66.6504C68.5737 66.6504 68.9448 66.9824 68.9448 67.5098C68.9448 67.6758 68.8862 67.8711 68.7983 68.0762C68.1245 69.4238 66.6304 70.1953 64.7163 70.1953ZM61.9429 63.916H67.0796C67.0308 62.3047 66.0249 61.2402 64.5601 61.2402C63.105 61.2402 62.0503 62.3145 61.9429 63.916ZM71.4763 70.1855C70.8513 70.1855 70.4216 69.7656 70.4216 69.0723V60.6055C70.4216 59.9609 70.8122 59.541 71.4275 59.541C72.0329 59.541 72.4528 59.9609 72.4528 60.6152V61.4258H72.5017C73.0583 60.2539 74.1325 59.5508 75.7146 59.5508C77.9802 59.5508 79.279 60.9961 79.279 63.3496V69.0723C79.279 69.7656 78.8396 70.1855 78.2146 70.1855C77.5993 70.1855 77.1599 69.7656 77.1599 69.0723V63.7598C77.1599 62.2168 76.4372 61.3672 74.9724 61.3672C73.488 61.3672 72.531 62.4219 72.531 64.0137V69.0723C72.531 69.7656 72.0915 70.1855 71.4763 70.1855ZM82.0448 70.1855C81.4296 70.1855 80.9902 69.7656 80.9902 69.0723V56.8164C80.9902 56.1523 81.3905 55.7227 82.0351 55.7227C82.6894 55.7227 83.08 56.1523 83.08 56.8164V61.4453H83.1288C83.6952 60.2441 84.8183 59.5508 86.3808 59.5508C88.6366 59.5508 89.9843 61.0547 89.9843 63.3789V69.0723C89.9843 69.7656 89.5448 70.1855 88.9198 70.1855C88.3046 70.1855 87.8652 69.7656 87.8652 69.0723V63.7891C87.8652 62.2754 87.1034 61.3672 85.6191 61.3672C84.0566 61.3672 83.0995 62.4414 83.0995 64.0625V69.0723C83.0995 69.7656 82.6601 70.1855 82.0448 70.1855ZM95.172 70.1855C92.9357 70.1855 91.5685 68.7305 91.5685 66.377V60.6641C91.5685 59.9609 91.9982 59.541 92.6232 59.541C93.2384 59.541 93.6779 59.9609 93.6779 60.6641V65.9668C93.6779 67.5293 94.42 68.3691 95.8751 68.3691C97.3986 68.3691 98.3165 67.3145 98.3165 65.7129V60.6641C98.3165 59.9609 98.756 59.541 99.3712 59.541C99.9962 59.541 100.426 59.9609 100.426 60.6641V69.1113C100.426 69.7656 100.026 70.1855 99.42 70.1855C98.8146 70.1855 98.4044 69.7656 98.4044 69.1211V68.2617H98.3556C97.7892 69.4922 96.7443 70.1855 95.172 70.1855ZM103.162 70.1855C102.528 70.1855 102.108 69.7461 102.108 69.0723V60.6152C102.108 59.9512 102.518 59.541 103.114 59.541C103.7 59.541 104.119 59.9414 104.119 60.6152V61.4551H104.168C104.627 60.3125 105.701 59.5508 107.088 59.5508C108.514 59.5508 109.549 60.2832 109.959 61.5625H110.008C110.535 60.3125 111.746 59.5508 113.211 59.5508C115.243 59.5508 116.571 60.8984 116.571 62.9395V69.0723C116.571 69.7461 116.141 70.1855 115.506 70.1855C114.871 70.1855 114.451 69.7461 114.451 69.0723V63.4473C114.451 62.1191 113.739 61.3574 112.489 61.3574C111.239 61.3574 110.369 62.2852 110.369 63.584V69.0723C110.369 69.7461 109.969 70.1855 109.334 70.1855C108.7 70.1855 108.299 69.7461 108.299 69.0723V63.291C108.299 62.1094 107.547 61.3574 106.356 61.3574C105.106 61.3574 104.217 62.334 104.217 63.6523V69.0723C104.217 69.7461 103.797 70.1855 103.162 70.1855ZM123.538 70.1855C122.893 70.1855 122.473 69.7852 122.473 69.082V61.3965H121.741C121.243 61.3965 120.901 61.1035 120.901 60.5762C120.901 60.0684 121.243 59.7461 121.741 59.7461H122.473V58.7402C122.473 56.748 123.44 55.8203 125.208 55.8105C126.331 55.8105 126.868 56.1719 126.868 56.7383C126.868 57.0801 126.702 57.2852 126.36 57.3828C126.214 57.4219 126.038 57.4512 125.823 57.4512C124.934 57.4609 124.563 57.8809 124.563 58.8184V59.7461H125.95C126.448 59.7461 126.79 60.0684 126.79 60.5762C126.79 61.1035 126.448 61.3965 125.95 61.3965H124.593V69.082C124.593 69.7852 124.173 70.1855 123.538 70.1855ZM130.337 70.1758C128.325 70.1758 126.909 68.9258 126.909 67.0801C126.909 65.2832 128.296 64.1797 130.728 64.043L133.55 63.877V63.0859C133.55 61.9434 132.778 61.2598 131.489 61.2598C130.474 61.2598 129.8 61.6211 129.214 62.5586C128.999 62.8711 128.726 63.0078 128.354 63.0078C127.827 63.0078 127.446 62.6562 127.446 62.1289C127.446 61.9141 127.505 61.6797 127.632 61.4453C128.169 60.2832 129.722 59.541 131.567 59.541C134.058 59.541 135.649 60.8594 135.649 62.9199V69.1211C135.649 69.7852 135.229 70.1855 134.634 70.1855C134.048 70.1855 133.647 69.8047 133.628 69.1797V68.3105H133.579C132.983 69.4531 131.675 70.1758 130.337 70.1758ZM130.913 68.5059C132.388 68.5059 133.55 67.4902 133.55 66.1523V65.3418L131.011 65.498C129.751 65.5859 129.038 66.1426 129.038 67.0215C129.038 67.9199 129.79 68.5059 130.913 68.5059ZM141.228 70.1855C140.476 70.1855 140.066 69.873 139.773 69.1113L136.726 61.0938C136.657 60.9082 136.609 60.7031 136.609 60.5078C136.609 59.9219 137.058 59.541 137.673 59.541C138.161 59.541 138.493 59.8047 138.669 60.3711L141.218 67.9395H141.257L143.806 60.3516C143.982 59.8047 144.314 59.541 144.792 59.541C145.398 59.541 145.827 59.9414 145.827 60.498C145.827 60.6836 145.788 60.8887 145.72 61.0645L142.673 69.1113C142.4 69.8535 141.95 70.1855 141.228 70.1855ZM150.966 70.1953C148.027 70.1953 146.093 68.1738 146.093 64.8633C146.093 61.5625 148.036 59.541 150.966 59.541C153.896 59.541 155.839 61.5625 155.839 64.8633C155.839 68.1738 153.906 70.1953 150.966 70.1953ZM150.966 68.457C152.626 68.457 153.691 67.1484 153.691 64.8633C153.691 62.5879 152.617 61.2793 150.966 61.2793C149.316 61.2793 148.242 62.5879 148.242 64.8633C148.242 67.1484 149.316 68.457 150.966 68.457ZM158.117 70.1855C157.482 70.1855 157.062 69.7559 157.062 69.0723V60.6055C157.062 59.9609 157.472 59.541 158.068 59.541C158.654 59.541 159.064 59.9609 159.064 60.6055V61.4844H159.113C159.396 60.332 160.343 59.5605 161.369 59.5605C161.74 59.5605 162.023 59.6484 162.199 59.8145C162.394 59.9707 162.482 60.2246 162.482 60.5566C162.482 60.8887 162.375 61.1328 162.17 61.2988C161.955 61.4844 161.642 61.5723 161.203 61.5723C159.757 61.582 159.171 62.5488 159.171 63.8281V69.0723C159.171 69.7559 158.742 70.1855 158.117 70.1855ZM164.34 58.1738C163.666 58.1738 163.119 57.627 163.119 56.9629C163.119 56.2891 163.666 55.7617 164.34 55.7617C165.023 55.7617 165.57 56.2891 165.57 56.9629C165.57 57.627 165.023 58.1738 164.34 58.1738ZM164.34 70.1855C163.705 70.1855 163.285 69.7461 163.285 69.0723V60.6641C163.285 59.9805 163.705 59.541 164.34 59.541C164.974 59.541 165.394 59.9805 165.394 60.6641V69.0723C165.394 69.7461 164.974 70.1855 164.34 70.1855ZM167.76 67.5391V61.3965H167.018C166.471 61.3965 166.139 61.084 166.139 60.5664C166.139 60.0391 166.471 59.7266 167.018 59.7266H167.76V58.2031C167.76 57.5293 168.18 57.0801 168.824 57.0801C169.459 57.0801 169.879 57.5293 169.879 58.2031V59.7266H171.08C171.627 59.7266 171.959 60.0488 171.959 60.5664C171.959 61.084 171.627 61.3965 171.08 61.3965H169.879V67.0703C169.879 67.8906 170.162 68.2617 170.924 68.3203L171.09 68.3301C171.695 68.3887 171.998 68.6328 171.998 69.1309C171.998 69.7656 171.51 70.0879 170.475 70.0879H170.367C168.639 70.0879 167.76 69.2383 167.76 67.5391ZM177.322 70.1953C174.383 70.1953 172.449 68.1738 172.449 64.8633C172.449 61.5625 174.393 59.541 177.322 59.541C180.252 59.541 182.196 61.5625 182.196 64.8633C182.196 68.1738 180.262 70.1953 177.322 70.1953ZM177.322 68.457C178.983 68.457 180.047 67.1484 180.047 64.8633C180.047 62.5879 178.973 61.2793 177.322 61.2793C175.672 61.2793 174.598 62.5879 174.598 64.8633C174.598 67.1484 175.672 68.457 177.322 68.457ZM188.128 73.6426C187.503 73.6426 187.073 73.2129 187.073 72.5195V60.625C187.073 59.9512 187.493 59.541 188.089 59.541C188.684 59.541 189.114 59.9512 189.114 60.625V61.4941H189.153C189.758 60.3125 190.94 59.5605 192.424 59.5605C195.032 59.5605 196.751 61.6113 196.751 64.8633C196.751 68.1152 195.042 70.1758 192.464 70.1758C190.989 70.1758 189.817 69.4531 189.231 68.3105H189.182V72.5195C189.182 73.2129 188.743 73.6426 188.128 73.6426ZM191.868 68.3887C193.538 68.3887 194.583 67.0215 194.583 64.8633C194.583 62.7148 193.538 61.3379 191.868 61.3379C190.256 61.3379 189.172 62.7441 189.172 64.8633C189.172 67.002 190.247 68.3887 191.868 68.3887ZM202.388 70.1953C199.448 70.1953 197.514 68.1738 197.514 64.8633C197.514 61.5625 199.458 59.541 202.388 59.541C205.317 59.541 207.261 61.5625 207.261 64.8633C207.261 68.1738 205.327 70.1953 202.388 70.1953ZM202.388 68.457C204.048 68.457 205.112 67.1484 205.112 64.8633C205.112 62.5879 204.038 61.2793 202.388 61.2793C200.737 61.2793 199.663 62.5879 199.663 64.8633C199.663 67.1484 200.737 68.457 202.388 68.457ZM209.538 70.1855C208.903 70.1855 208.483 69.7559 208.483 69.0723V60.6055C208.483 59.9609 208.894 59.541 209.489 59.541C210.075 59.541 210.485 59.9609 210.485 60.6055V61.4844H210.534C210.817 60.332 211.765 59.5605 212.79 59.5605C213.161 59.5605 213.444 59.6484 213.62 59.8145C213.815 59.9707 213.903 60.2246 213.903 60.5566C213.903 60.8887 213.796 61.1328 213.591 61.2988C213.376 61.4844 213.064 61.5723 212.624 61.5723C211.179 61.582 210.593 62.5488 210.593 63.8281V69.0723C210.593 69.7559 210.163 70.1855 209.538 70.1855ZM221.3 70.1758C219.289 70.1758 217.873 68.9258 217.873 67.0801C217.873 65.2832 219.259 64.1797 221.691 64.043L224.513 63.877V63.0859C224.513 61.9434 223.742 61.2598 222.453 61.2598C221.437 61.2598 220.763 61.6211 220.177 62.5586C219.962 62.8711 219.689 63.0078 219.318 63.0078C218.79 63.0078 218.41 62.6562 218.41 62.1289C218.41 61.9141 218.468 61.6797 218.595 61.4453C219.132 60.2832 220.685 59.541 222.531 59.541C225.021 59.541 226.613 60.8594 226.613 62.9199V69.1211C226.613 69.7852 226.193 70.1855 225.597 70.1855C225.011 70.1855 224.611 69.8047 224.591 69.1797V68.3105H224.542C223.947 69.4531 222.638 70.1758 221.3 70.1758ZM221.876 68.5059C223.351 68.5059 224.513 67.4902 224.513 66.1523V65.3418L221.974 65.498C220.714 65.5859 220.001 66.1426 220.001 67.0215C220.001 67.9199 220.753 68.5059 221.876 68.5059ZM232.064 70.1758C229.486 70.1758 227.797 68.1055 227.797 64.8633C227.797 61.6211 229.486 59.5605 232.113 59.5605C233.597 59.5605 234.769 60.3125 235.375 61.4941H235.424V60.625C235.424 59.9707 235.814 59.541 236.449 59.541C237.084 59.541 237.474 59.9805 237.474 60.625V72.5195C237.474 73.2129 237.035 73.6426 236.42 73.6426C235.795 73.6426 235.355 73.2129 235.355 72.5195V68.2715H235.316C234.73 69.4238 233.529 70.1758 232.064 70.1758ZM232.631 68.3887C234.252 68.3887 235.365 67.002 235.365 64.8633C235.365 62.7344 234.252 61.3379 232.631 61.3379C230.98 61.3379 229.955 62.6855 229.955 64.8633C229.955 67.041 230.98 68.3887 232.631 68.3887ZM242.711 70.1855C240.474 70.1855 239.107 68.7305 239.107 66.377V60.6641C239.107 59.9609 239.537 59.541 240.162 59.541C240.777 59.541 241.217 59.9609 241.217 60.6641V65.9668C241.217 67.5293 241.959 68.3691 243.414 68.3691C244.937 68.3691 245.855 67.3145 245.855 65.7129V60.6641C245.855 59.9609 246.295 59.541 246.91 59.541C247.535 59.541 247.965 59.9609 247.965 60.6641V69.1113C247.965 69.7656 247.564 70.1855 246.959 70.1855C246.353 70.1855 245.943 69.7656 245.943 69.1211V68.2617H245.894C245.328 69.4922 244.283 70.1855 242.711 70.1855ZM250.77 58.1738C250.096 58.1738 249.549 57.627 249.549 56.9629C249.549 56.2891 250.096 55.7617 250.77 55.7617C251.453 55.7617 252 56.2891 252 56.9629C252 57.627 251.453 58.1738 250.77 58.1738ZM250.77 70.1855C250.135 70.1855 249.715 69.7461 249.715 69.0723V60.6641C249.715 59.9805 250.135 59.541 250.77 59.541C251.404 59.541 251.824 59.9805 251.824 60.6641V69.0723C251.824 69.7461 251.404 70.1855 250.77 70.1855ZM255.157 70.1074C254.444 70.1074 253.877 69.541 253.877 68.8281C253.877 68.1152 254.444 67.5488 255.157 67.5488C255.869 67.5488 256.436 68.1152 256.436 68.8281C256.436 69.541 255.869 70.1074 255.157 70.1074ZM260.002 70.1074C259.29 70.1074 258.723 69.541 258.723 68.8281C258.723 68.1152 259.29 67.5488 260.002 67.5488C260.715 67.5488 261.282 68.1152 261.282 68.8281C261.282 69.541 260.715 70.1074 260.002 70.1074ZM264.848 70.1074C264.135 70.1074 263.569 69.541 263.569 68.8281C263.569 68.1152 264.135 67.5488 264.848 67.5488C265.561 67.5488 266.128 68.1152 266.128 68.8281C266.128 69.541 265.561 70.1074 264.848 70.1074Z" fill="#999999" fill-opacity="0.8"/>
<path d="M27.6779 117.226C26.8318 116.989 26.3693 116.235 26.3096 114.918L25.7369 103.718L14.8408 100.957C13.5793 100.646 12.8778 100.077 12.8349 99.1757C12.7887 98.3123 13.3857 97.6363 14.6163 97.1699L25.0563 93.1309L24.3059 81.9466C24.224 80.6196 24.5647 79.8058 25.3756 79.4863C26.2024 79.1606 27.0066 79.5235 27.8517 80.5498L34.9306 89.2413L45.3205 85.0751C46.5386 84.5769 47.4363 84.6642 47.9913 85.3272C48.5589 86.022 48.4495 86.91 47.7393 87.998L41.6535 97.4485L48.8726 106.03C49.7274 107.034 49.9037 107.901 49.4459 108.651C48.9785 109.423 48.0987 109.567 46.831 109.24L35.9672 106.374L29.9922 115.873C29.2882 116.977 28.5303 117.478 27.6779 117.226ZM28.7274 113.175C28.778 113.21 28.8132 113.16 28.858 113.087L34.2075 104.239C34.5598 103.641 35.1481 103.409 35.8135 103.606L45.7604 106.429C45.8428 106.452 45.9031 106.465 45.9161 106.404C45.9353 106.36 45.9132 106.351 45.8597 106.261L39.1127 98.4126C38.6459 97.8802 38.5789 97.3372 38.9851 96.7363L44.749 88.1473C44.7938 88.0745 44.8131 88.0302 44.7784 87.9888C44.7437 87.9473 44.7119 87.9598 44.6165 87.9974L35.0655 91.9617C34.4198 92.2344 33.8999 92.127 33.4364 91.5565L27.0431 83.4398C26.9897 83.3507 26.9453 83.3314 26.8976 83.3502C26.8658 83.3627 26.8465 83.4071 26.8682 83.5087L27.7281 93.8051C27.7782 94.5384 27.4712 94.9716 26.813 95.2125L17.1242 98.827C17.0288 98.8646 16.997 98.8771 16.9999 98.9311C17.0028 98.985 17.0312 99.0106 17.1295 99.027L27.2027 101.378C27.9095 101.54 28.2309 101.983 28.2526 102.691L28.6711 113.032C28.6927 113.134 28.6831 113.156 28.7274 113.175Z" fill="#999999" fill-opacity="0.6"/>
<path d="M250.753 38.5997C250.3 37.847 250.482 36.9809 251.344 35.9824L258.62 27.4497L252.597 17.9587C251.894 16.866 251.775 15.9709 252.363 15.2863C252.923 14.627 253.814 14.5616 255.036 15.052L265.423 19.2241L272.534 10.6435C273.386 9.6228 274.193 9.26534 275.001 9.59019C275.826 9.9214 276.161 10.7375 276.071 12.0639L275.271 23.1795L285.658 27.3516C286.879 27.842 287.478 28.5061 287.426 29.3692C287.362 30.2641 286.672 30.8343 285.409 31.1372L274.494 33.8255L273.847 45.0208C273.778 46.3377 273.311 47.0891 272.463 47.3196C271.593 47.5595 270.855 47.0603 270.158 45.9517L264.231 36.4069L253.364 39.2064C252.094 39.5251 251.199 39.3684 250.753 38.5997Z" fill="#999999" fill-opacity="0.6"/>
</svg>
