<svg width="262" height="125" viewBox="0 0 262 125" fill="none" xmlns="http://www.w3.org/2000/svg">
<path d="M15.5228 96.2344C12.7884 96.2344 10.9134 95.0527 10.3665 93.4121C10.2981 93.1973 10.2493 92.9629 10.2493 92.7285C10.2493 92.0938 10.6399 91.6836 11.2356 91.6836C11.7337 91.6836 12.056 91.9082 12.2708 92.4355C12.7103 93.7539 13.9895 94.3691 15.6204 94.3691C17.4075 94.3691 18.6868 93.4512 18.6868 92.1914C18.6868 91.0977 17.9446 90.4141 16.0599 90.0039L14.5169 89.6816C11.7044 89.0859 10.4251 87.7773 10.4251 85.7461C10.4251 83.334 12.5442 81.6738 15.5423 81.6738C17.9739 81.6738 19.888 82.8164 20.4349 84.7012C20.4837 84.8379 20.513 85.0039 20.513 85.209C20.513 85.7754 20.1126 86.1465 19.5462 86.1465C19.0188 86.1465 18.6966 85.9023 18.472 85.3945C17.9935 84.0957 16.9192 83.5391 15.513 83.5391C13.8626 83.5391 12.6419 84.3398 12.6419 85.6289C12.6419 86.6543 13.3743 87.3379 15.2005 87.7285L16.7337 88.0508C19.6927 88.6758 20.9036 89.8574 20.9036 91.9082C20.9036 94.5645 18.8138 96.2344 15.5228 96.2344ZM25.7593 96.1855C23.523 96.1855 22.1558 94.7305 22.1558 92.377V86.6641C22.1558 85.9609 22.5855 85.541 23.2105 85.541C23.8257 85.541 24.2651 85.9609 24.2651 86.6641V91.9668C24.2651 93.5293 25.0073 94.3691 26.4624 94.3691C27.9858 94.3691 28.9038 93.3145 28.9038 91.7129V86.6641C28.9038 85.9609 29.3433 85.541 29.9585 85.541C30.5835 85.541 31.0132 85.9609 31.0132 86.6641V95.1113C31.0132 95.7656 30.6128 96.1855 30.0073 96.1855C29.4019 96.1855 28.9917 95.7656 28.9917 95.1211V94.2617H28.9429C28.3765 95.4922 27.3315 96.1855 25.7593 96.1855ZM35.7028 96.1758C33.6911 96.1758 32.2751 94.9258 32.2751 93.0801C32.2751 91.2832 33.6618 90.1797 36.0935 90.043L38.9157 89.877V89.0859C38.9157 87.9434 38.1443 87.2598 36.8552 87.2598C35.8396 87.2598 35.1657 87.6211 34.5798 88.5586C34.365 88.8711 34.0915 89.0078 33.7204 89.0078C33.1931 89.0078 32.8122 88.6562 32.8122 88.1289C32.8122 87.9141 32.8708 87.6797 32.9978 87.4453C33.5349 86.2832 35.0876 85.541 36.9333 85.541C39.4235 85.541 41.0153 86.8594 41.0153 88.9199V95.1211C41.0153 95.7852 40.5954 96.1855 39.9997 96.1855C39.4138 96.1855 39.0134 95.8047 38.9939 95.1797V94.3105H38.945C38.3493 95.4531 37.0407 96.1758 35.7028 96.1758ZM36.279 94.5059C37.7536 94.5059 38.9157 93.4902 38.9157 92.1523V91.3418L36.3767 91.498C35.1169 91.5859 34.404 92.1426 34.404 93.0215C34.404 93.9199 35.156 94.5059 36.279 94.5059ZM50.7072 96.1953C47.7677 96.1953 45.8536 94.1543 45.8536 90.8828C45.8536 87.6309 47.7579 85.541 50.6876 85.541C52.67 85.541 54.3693 86.5957 54.8185 88.0312C54.8771 88.1973 54.9161 88.373 54.9161 88.5195C54.9161 89.0566 54.5353 89.3887 54.0177 89.3887C53.5685 89.3887 53.3146 89.2129 53.0607 88.7441C52.5333 87.7676 51.8107 87.2988 50.7267 87.2988C49.0763 87.2988 48.0021 88.6758 48.0021 90.8633C48.0021 93.0996 49.0958 94.4277 50.7267 94.4277C51.8693 94.4277 52.5626 93.9199 53.0607 93.0312C53.3536 92.5234 53.5783 92.3477 54.0372 92.3477C54.5548 92.3477 54.9357 92.6992 54.9357 93.2266C54.9357 93.3926 54.8966 93.5684 54.8185 93.7734C54.2814 95.1895 52.6115 96.1953 50.7072 96.1953ZM60.6507 96.1953C57.7113 96.1953 55.7777 94.1738 55.7777 90.8633C55.7777 87.5625 57.721 85.541 60.6507 85.541C63.5804 85.541 65.5238 87.5625 65.5238 90.8633C65.5238 94.1738 63.5902 96.1953 60.6507 96.1953ZM60.6507 94.457C62.3109 94.457 63.3753 93.1484 63.3753 90.8633C63.3753 88.5879 62.3011 87.2793 60.6507 87.2793C59.0003 87.2793 57.9261 88.5879 57.9261 90.8633C57.9261 93.1484 59.0003 94.457 60.6507 94.457ZM67.8794 96.1855C67.2642 96.1855 66.8248 95.7656 66.8248 95.0723V82.8359C66.8248 82.1426 67.2642 81.7227 67.8794 81.7227C68.4947 81.7227 68.9341 82.1426 68.9341 82.8359V95.0723C68.9341 95.7656 68.4947 96.1855 67.8794 96.1855ZM75.1472 96.1953C72.0515 96.1953 70.2351 94.2324 70.2351 90.9121C70.2351 87.6504 72.0906 85.541 75.0007 85.541C77.7351 85.541 79.6199 87.5137 79.6199 90.3164C79.6199 91 79.2292 91.3906 78.575 91.3906H72.364V91.4395C72.364 93.3145 73.4187 94.4863 75.0984 94.4863C76.2507 94.4863 76.9734 94.0859 77.7546 93.0215C77.9792 92.7578 78.1941 92.6504 78.4968 92.6504C79.0046 92.6504 79.3757 92.9824 79.3757 93.5098C79.3757 93.6758 79.3171 93.8711 79.2292 94.0762C78.5554 95.4238 77.0613 96.1953 75.1472 96.1953ZM72.3738 89.916H77.5105C77.4617 88.3047 76.4558 87.2402 74.991 87.2402C73.5359 87.2402 72.4812 88.3145 72.3738 89.916ZM85.1689 100.541C84.8173 100.541 84.5341 100.521 84.3095 100.463C83.8701 100.375 83.665 100.18 83.665 99.877C83.665 99.584 83.8798 99.4082 84.2216 99.4082C84.4267 99.4082 84.6318 99.457 84.9248 99.457C85.667 99.457 86.0673 99.2324 86.0673 98.8027C86.0673 98.4121 85.6963 98.2168 84.9443 98.2168H84.7002C84.3095 98.2168 84.0459 98.002 84.0459 97.6797C84.0459 97.5332 84.0849 97.3867 84.1728 97.1914L84.6025 96.1562C82.0341 95.8828 80.3935 93.9102 80.3935 90.8828C80.3935 87.6309 82.2978 85.541 85.2275 85.541C87.2099 85.541 88.9091 86.5957 89.3584 88.0312C89.417 88.1973 89.456 88.373 89.456 88.5195C89.456 89.0566 89.0752 89.3887 88.5576 89.3887C88.1084 89.3887 87.8545 89.2129 87.6005 88.7441C87.0732 87.7676 86.3505 87.2988 85.2666 87.2988C83.6162 87.2988 82.542 88.6758 82.542 90.8633C82.542 93.0996 83.6357 94.4277 85.2666 94.4277C86.4091 94.4277 87.1025 93.9199 87.6005 93.0312C87.8935 92.5234 88.1181 92.3477 88.5771 92.3477C89.0947 92.3477 89.4755 92.6992 89.4755 93.2266C89.4755 93.3926 89.4365 93.5684 89.3584 93.7734C88.8896 95.0039 87.5517 95.9316 85.9502 96.1465L85.4912 97.2012C86.6923 97.2109 87.4834 97.7773 87.4834 98.7734C87.4834 99.916 86.497 100.541 85.1689 100.541ZM92.3781 84.3594C91.9875 84.3594 91.7433 84.1055 91.7433 83.6855C91.7433 82.3867 92.5832 81.5664 93.6965 81.5664C95.0539 81.5664 95.5129 82.9922 96.2355 82.9922C96.5871 82.9922 96.7824 82.7285 96.8898 82.1035C96.9679 81.6445 97.1437 81.4297 97.5343 81.4297C97.9152 81.4297 98.1691 81.6934 98.1691 82.1035C98.1691 83.3633 97.3195 84.2324 96.2551 84.2324C94.9465 84.2324 94.4484 82.8066 93.716 82.8066C93.3058 82.8066 93.1105 83.0605 93.0226 83.7344C92.964 84.1445 92.759 84.3594 92.3781 84.3594ZM93.7843 96.1758C91.7726 96.1758 90.3566 94.9258 90.3566 93.0801C90.3566 91.2832 91.7433 90.1797 94.175 90.043L96.9972 89.877V89.0859C96.9972 87.9434 96.2258 87.2598 94.9367 87.2598C93.9211 87.2598 93.2472 87.6211 92.6613 88.5586C92.4465 88.8711 92.173 89.0078 91.8019 89.0078C91.2746 89.0078 90.8937 88.6562 90.8937 88.1289C90.8937 87.9141 90.9523 87.6797 91.0793 87.4453C91.6164 86.2832 93.1691 85.541 95.0148 85.541C97.5051 85.541 99.0968 86.8594 99.0968 88.9199V95.1211C99.0968 95.7852 98.6769 96.1855 98.0812 96.1855C97.4953 96.1855 97.0949 95.8047 97.0754 95.1797V94.3105H97.0265C96.4308 95.4531 95.1222 96.1758 93.7843 96.1758ZM94.3605 94.5059C95.8351 94.5059 96.9972 93.4902 96.9972 92.1523V91.3418L94.4582 91.498C93.1984 91.5859 92.4855 92.1426 92.4855 93.0215C92.4855 93.9199 93.2375 94.5059 94.3605 94.5059ZM105.154 96.1953C102.214 96.1953 100.281 94.1738 100.281 90.8633C100.281 87.5625 102.224 85.541 105.154 85.541C108.083 85.541 110.027 87.5625 110.027 90.8633C110.027 94.1738 108.093 96.1953 105.154 96.1953ZM105.154 94.457C106.814 94.457 107.878 93.1484 107.878 90.8633C107.878 88.5879 106.804 87.2793 105.154 87.2793C103.503 87.2793 102.429 88.5879 102.429 90.8633C102.429 93.1484 103.503 94.457 105.154 94.457ZM115.959 96.1855C115.334 96.1855 114.904 95.7656 114.904 95.0723V86.6055C114.904 85.9609 115.295 85.541 115.91 85.541C116.515 85.541 116.935 85.9609 116.935 86.6152V87.4258H116.984C117.541 86.2539 118.615 85.5508 120.197 85.5508C122.463 85.5508 123.762 86.9961 123.762 89.3496V95.0723C123.762 95.7656 123.322 96.1855 122.697 96.1855C122.082 96.1855 121.642 95.7656 121.642 95.0723V89.7598C121.642 88.2168 120.92 87.3672 119.455 87.3672C117.971 87.3672 117.013 88.4219 117.013 90.0137V95.0723C117.013 95.7656 116.574 96.1855 115.959 96.1855ZM126.996 84.3594C126.605 84.3594 126.361 84.1055 126.361 83.6855C126.361 82.3867 127.201 81.5664 128.314 81.5664C129.672 81.5664 130.131 82.9922 130.854 82.9922C131.205 82.9922 131.4 82.7285 131.508 82.1035C131.586 81.6445 131.762 81.4297 132.152 81.4297C132.533 81.4297 132.787 81.6934 132.787 82.1035C132.787 83.3633 131.938 84.2324 130.873 84.2324C129.564 84.2324 129.066 82.8066 128.334 82.8066C127.924 82.8066 127.729 83.0605 127.641 83.7344C127.582 84.1445 127.377 84.3594 126.996 84.3594ZM128.402 96.1758C126.391 96.1758 124.975 94.9258 124.975 93.0801C124.975 91.2832 126.361 90.1797 128.793 90.043L131.615 89.877V89.0859C131.615 87.9434 130.844 87.2598 129.555 87.2598C128.539 87.2598 127.865 87.6211 127.279 88.5586C127.064 88.8711 126.791 89.0078 126.42 89.0078C125.893 89.0078 125.512 88.6562 125.512 88.1289C125.512 87.9141 125.57 87.6797 125.697 87.4453C126.234 86.2832 127.787 85.541 129.633 85.541C132.123 85.541 133.715 86.8594 133.715 88.9199V95.1211C133.715 95.7852 133.295 96.1855 132.699 96.1855C132.113 96.1855 131.713 95.8047 131.693 95.1797V94.3105H131.645C131.049 95.4531 129.74 96.1758 128.402 96.1758ZM128.979 94.5059C130.453 94.5059 131.615 93.4902 131.615 92.1523V91.3418L129.076 91.498C127.816 91.5859 127.104 92.1426 127.104 93.0215C127.104 93.9199 127.855 94.5059 128.979 94.5059ZM139.772 96.1953C136.832 96.1953 134.899 94.1738 134.899 90.8633C134.899 87.5625 136.842 85.541 139.772 85.541C142.701 85.541 144.645 87.5625 144.645 90.8633C144.645 94.1738 142.711 96.1953 139.772 96.1953ZM139.772 94.457C141.432 94.457 142.496 93.1484 142.496 90.8633C142.496 88.5879 141.422 87.2793 139.772 87.2793C138.121 87.2793 137.047 88.5879 137.047 90.8633C137.047 93.1484 138.121 94.457 139.772 94.457ZM150.137 93.5391V87.3965H149.395C148.848 87.3965 148.516 87.084 148.516 86.5664C148.516 86.0391 148.848 85.7266 149.395 85.7266H150.137V84.2031C150.137 83.5293 150.557 83.0801 151.202 83.0801C151.837 83.0801 152.256 83.5293 152.256 84.2031V85.7266H153.458C154.005 85.7266 154.337 86.0488 154.337 86.5664C154.337 87.084 154.005 87.3965 153.458 87.3965H152.256V93.0703C152.256 93.8906 152.54 94.2617 153.301 94.3203L153.467 94.3301C154.073 94.3887 154.376 94.6328 154.376 95.1309C154.376 95.7656 153.887 96.0879 152.852 96.0879H152.745C151.016 96.0879 150.137 95.2383 150.137 93.5391ZM159.739 96.1953C156.643 96.1953 154.827 94.2324 154.827 90.9121C154.827 87.6504 156.682 85.541 159.593 85.541C162.327 85.541 164.212 87.5137 164.212 90.3164C164.212 91 163.821 91.3906 163.167 91.3906H156.956V91.4395C156.956 93.3145 158.011 94.4863 159.69 94.4863C160.843 94.4863 161.565 94.0859 162.347 93.0215C162.571 92.7578 162.786 92.6504 163.089 92.6504C163.597 92.6504 163.968 92.9824 163.968 93.5098C163.968 93.6758 163.909 93.8711 163.821 94.0762C163.147 95.4238 161.653 96.1953 159.739 96.1953ZM156.966 89.916H162.102C162.054 88.3047 161.048 87.2402 159.583 87.2402C158.128 87.2402 157.073 88.3145 156.966 89.916ZM166.499 96.1855C165.864 96.1855 165.444 95.7461 165.444 95.0723V86.6152C165.444 85.9512 165.855 85.541 166.45 85.541C167.036 85.541 167.456 85.9414 167.456 86.6152V87.4551H167.505C167.964 86.3125 169.038 85.5508 170.425 85.5508C171.851 85.5508 172.886 86.2832 173.296 87.5625H173.345C173.872 86.3125 175.083 85.5508 176.548 85.5508C178.579 85.5508 179.907 86.8984 179.907 88.9395V95.0723C179.907 95.7461 179.478 96.1855 178.843 96.1855C178.208 96.1855 177.788 95.7461 177.788 95.0723V89.4473C177.788 88.1191 177.075 87.3574 175.825 87.3574C174.575 87.3574 173.706 88.2852 173.706 89.584V95.0723C173.706 95.7461 173.306 96.1855 172.671 96.1855C172.036 96.1855 171.636 95.7461 171.636 95.0723V89.291C171.636 88.1094 170.884 87.3574 169.692 87.3574C168.442 87.3574 167.554 88.334 167.554 89.6523V95.0723C167.554 95.7461 167.134 96.1855 166.499 96.1855ZM186.249 96.1855C185.624 96.1855 185.195 95.7656 185.195 95.0723V86.6055C185.195 85.9609 185.585 85.541 186.201 85.541C186.806 85.541 187.226 85.9609 187.226 86.6152V87.4258H187.275C187.831 86.2539 188.906 85.5508 190.488 85.5508C192.753 85.5508 194.052 86.9961 194.052 89.3496V95.0723C194.052 95.7656 193.613 96.1855 192.988 96.1855C192.373 96.1855 191.933 95.7656 191.933 95.0723V89.7598C191.933 88.2168 191.21 87.3672 189.746 87.3672C188.261 87.3672 187.304 88.4219 187.304 90.0137V95.0723C187.304 95.7656 186.865 96.1855 186.249 96.1855ZM200.138 96.1953C197.043 96.1953 195.226 94.2324 195.226 90.9121C195.226 87.6504 197.082 85.541 199.992 85.541C202.726 85.541 204.611 87.5137 204.611 90.3164C204.611 91 204.22 91.3906 203.566 91.3906H197.355V91.4395C197.355 93.3145 198.41 94.4863 200.09 94.4863C201.242 94.4863 201.965 94.0859 202.746 93.0215C202.97 92.7578 203.185 92.6504 203.488 92.6504C203.996 92.6504 204.367 92.9824 204.367 93.5098C204.367 93.6758 204.308 93.8711 204.22 94.0762C203.547 95.4238 202.052 96.1953 200.138 96.1953ZM197.365 89.916H202.502C202.453 88.3047 201.447 87.2402 199.982 87.2402C198.527 87.2402 197.472 88.3145 197.365 89.916ZM206.898 96.1855C206.273 96.1855 205.844 95.7656 205.844 95.0723V86.6055C205.844 85.9609 206.234 85.541 206.849 85.541C207.455 85.541 207.875 85.9609 207.875 86.6152V87.4258H207.924C208.48 86.2539 209.555 85.5508 211.137 85.5508C213.402 85.5508 214.701 86.9961 214.701 89.3496V95.0723C214.701 95.7656 214.262 96.1855 213.637 96.1855C213.021 96.1855 212.582 95.7656 212.582 95.0723V89.7598C212.582 88.2168 211.859 87.3672 210.394 87.3672C208.91 87.3672 207.953 88.4219 207.953 90.0137V95.0723C207.953 95.7656 207.514 96.1855 206.898 96.1855ZM217.467 96.1855C216.852 96.1855 216.412 95.7656 216.412 95.0723V82.8164C216.412 82.1523 216.813 81.7227 217.457 81.7227C218.111 81.7227 218.502 82.1523 218.502 82.8164V87.4453H218.551C219.117 86.2441 220.24 85.5508 221.803 85.5508C224.059 85.5508 225.406 87.0547 225.406 89.3789V95.0723C225.406 95.7656 224.967 96.1855 224.342 96.1855C223.727 96.1855 223.287 95.7656 223.287 95.0723V89.7891C223.287 88.2754 222.525 87.3672 221.041 87.3672C219.479 87.3672 218.522 88.4414 218.522 90.0625V95.0723C218.522 95.7656 218.082 96.1855 217.467 96.1855ZM230.594 96.1855C228.358 96.1855 226.991 94.7305 226.991 92.377V86.6641C226.991 85.9609 227.42 85.541 228.045 85.541C228.66 85.541 229.1 85.9609 229.1 86.6641V91.9668C229.1 93.5293 229.842 94.3691 231.297 94.3691C232.821 94.3691 233.739 93.3145 233.739 91.7129V86.6641C233.739 85.9609 234.178 85.541 234.793 85.541C235.418 85.541 235.848 85.9609 235.848 86.6641V95.1113C235.848 95.7656 235.448 96.1855 234.842 96.1855C234.237 96.1855 233.826 95.7656 233.826 95.1211V94.2617H233.778C233.211 95.4922 232.166 96.1855 230.594 96.1855ZM238.584 96.1855C237.95 96.1855 237.53 95.7461 237.53 95.0723V86.6152C237.53 85.9512 237.94 85.541 238.536 85.541C239.122 85.541 239.542 85.9414 239.542 86.6152V87.4551H239.59C240.049 86.3125 241.124 85.5508 242.51 85.5508C243.936 85.5508 244.971 86.2832 245.381 87.5625H245.43C245.958 86.3125 247.168 85.5508 248.633 85.5508C250.665 85.5508 251.993 86.8984 251.993 88.9395V95.0723C251.993 95.7461 251.563 96.1855 250.928 96.1855C250.293 96.1855 249.874 95.7461 249.874 95.0723V89.4473C249.874 88.1191 249.161 87.3574 247.911 87.3574C246.661 87.3574 245.792 88.2852 245.792 89.584V95.0723C245.792 95.7461 245.391 96.1855 244.756 96.1855C244.122 96.1855 243.721 95.7461 243.721 95.0723V89.291C243.721 88.1094 242.969 87.3574 241.778 87.3574C240.528 87.3574 239.639 88.334 239.639 89.6523V95.0723C239.639 95.7461 239.219 96.1855 238.584 96.1855ZM83.2332 108.174C82.5593 108.174 82.0125 107.627 82.0125 106.963C82.0125 106.289 82.5593 105.762 83.2332 105.762C83.9167 105.762 84.4636 106.289 84.4636 106.963C84.4636 107.627 83.9167 108.174 83.2332 108.174ZM83.2332 120.186C82.5984 120.186 82.1785 119.746 82.1785 119.072V110.664C82.1785 109.98 82.5984 109.541 83.2332 109.541C83.8679 109.541 84.2878 109.98 84.2878 110.664V119.072C84.2878 119.746 83.8679 120.186 83.2332 120.186ZM86.6533 117.539V111.396H85.9111C85.3642 111.396 85.0322 111.084 85.0322 110.566C85.0322 110.039 85.3642 109.727 85.9111 109.727H86.6533V108.203C86.6533 107.529 87.0732 107.08 87.7177 107.08C88.3525 107.08 88.7724 107.529 88.7724 108.203V109.727H89.9736C90.5205 109.727 90.8525 110.049 90.8525 110.566C90.8525 111.084 90.5205 111.396 89.9736 111.396H88.7724V117.07C88.7724 117.891 89.0556 118.262 89.8173 118.32L89.9834 118.33C90.5888 118.389 90.8916 118.633 90.8916 119.131C90.8916 119.766 90.4033 120.088 89.3681 120.088H89.2607C87.5322 120.088 86.6533 119.238 86.6533 117.539ZM96.255 120.195C93.1593 120.195 91.3429 118.232 91.3429 114.912C91.3429 111.65 93.1984 109.541 96.1086 109.541C98.8429 109.541 100.728 111.514 100.728 114.316C100.728 115 100.337 115.391 99.6828 115.391H93.4718V115.439C93.4718 117.314 94.5265 118.486 96.2062 118.486C97.3586 118.486 98.0812 118.086 98.8625 117.021C99.0871 116.758 99.3019 116.65 99.6047 116.65C100.112 116.65 100.484 116.982 100.484 117.51C100.484 117.676 100.425 117.871 100.337 118.076C99.6632 119.424 98.1691 120.195 96.255 120.195ZM93.4816 113.916H98.6183C98.5695 112.305 97.5636 111.24 96.0988 111.24C94.6437 111.24 93.589 112.314 93.4816 113.916ZM103.015 120.186C102.38 120.186 101.96 119.746 101.96 119.072V110.615C101.96 109.951 102.37 109.541 102.966 109.541C103.552 109.541 103.972 109.941 103.972 110.615V111.455H104.021C104.48 110.312 105.554 109.551 106.941 109.551C108.367 109.551 109.402 110.283 109.812 111.562H109.861C110.388 110.312 111.599 109.551 113.064 109.551C115.095 109.551 116.423 110.898 116.423 112.939V119.072C116.423 119.746 115.994 120.186 115.359 120.186C114.724 120.186 114.304 119.746 114.304 119.072V113.447C114.304 112.119 113.591 111.357 112.341 111.357C111.091 111.357 110.222 112.285 110.222 113.584V119.072C110.222 119.746 109.822 120.186 109.187 120.186C108.552 120.186 108.152 119.746 108.152 119.072V113.291C108.152 112.109 107.4 111.357 106.208 111.357C104.958 111.357 104.07 112.334 104.07 113.652V119.072C104.07 119.746 103.65 120.186 103.015 120.186ZM124.719 120.176C122.707 120.176 121.291 118.926 121.291 117.08C121.291 115.283 122.678 114.18 125.109 114.043L127.931 113.877V113.086C127.931 111.943 127.16 111.26 125.871 111.26C124.855 111.26 124.181 111.621 123.595 112.559C123.381 112.871 123.107 113.008 122.736 113.008C122.209 113.008 121.828 112.656 121.828 112.129C121.828 111.914 121.887 111.68 122.013 111.445C122.551 110.283 124.103 109.541 125.949 109.541C128.439 109.541 130.031 110.859 130.031 112.92V119.121C130.031 119.785 129.611 120.186 129.015 120.186C128.429 120.186 128.029 119.805 128.01 119.18V118.311H127.961C127.365 119.453 126.056 120.176 124.719 120.176ZM125.295 118.506C126.769 118.506 127.931 117.49 127.931 116.152V115.342L125.392 115.498C124.133 115.586 123.42 116.143 123.42 117.021C123.42 117.92 124.172 118.506 125.295 118.506ZM132.797 108.174C132.123 108.174 131.576 107.627 131.576 106.963C131.576 106.289 132.123 105.762 132.797 105.762C133.48 105.762 134.027 106.289 134.027 106.963C134.027 107.627 133.48 108.174 132.797 108.174ZM132.797 120.186C132.162 120.186 131.742 119.746 131.742 119.072V110.664C131.742 109.98 132.162 109.541 132.797 109.541C133.432 109.541 133.852 109.98 133.852 110.664V119.072C133.852 119.746 133.432 120.186 132.797 120.186ZM136.656 120.186C136.031 120.186 135.602 119.766 135.602 119.072V110.605C135.602 109.961 135.992 109.541 136.608 109.541C137.213 109.541 137.633 109.961 137.633 110.615V111.426H137.682C138.238 110.254 139.313 109.551 140.895 109.551C143.16 109.551 144.459 110.996 144.459 113.35V119.072C144.459 119.766 144.02 120.186 143.395 120.186C142.779 120.186 142.34 119.766 142.34 119.072V113.76C142.34 112.217 141.617 111.367 140.153 111.367C138.668 111.367 137.711 112.422 137.711 114.014V119.072C137.711 119.766 137.272 120.186 136.656 120.186ZM149.95 120.176C147.352 120.176 145.633 118.105 145.633 114.863C145.633 111.621 147.352 109.561 149.93 109.561C151.405 109.561 152.577 110.303 153.153 111.436H153.192V106.836C153.192 106.143 153.631 105.723 154.256 105.723C154.871 105.723 155.311 106.143 155.311 106.836V119.131C155.311 119.795 154.881 120.186 154.266 120.186C153.67 120.186 153.192 119.795 153.192 119.131V118.174H153.163C152.635 119.375 151.551 120.176 149.95 120.176ZM150.506 118.389C152.127 118.389 153.211 117.012 153.211 114.863C153.211 112.734 152.127 111.338 150.506 111.338C148.836 111.338 147.791 112.705 147.791 114.863C147.791 117.031 148.836 118.389 150.506 118.389ZM160.079 120.176C158.067 120.176 156.651 118.926 156.651 117.08C156.651 115.283 158.038 114.18 160.469 114.043L163.292 113.877V113.086C163.292 111.943 162.52 111.26 161.231 111.26C160.215 111.26 159.542 111.621 158.956 112.559C158.741 112.871 158.467 113.008 158.096 113.008C157.569 113.008 157.188 112.656 157.188 112.129C157.188 111.914 157.247 111.68 157.374 111.445C157.911 110.283 159.464 109.541 161.309 109.541C163.799 109.541 165.391 110.859 165.391 112.92V119.121C165.391 119.785 164.971 120.186 164.376 120.186C163.79 120.186 163.389 119.805 163.37 119.18V118.311H163.321C162.725 119.453 161.417 120.176 160.079 120.176ZM160.655 118.506C162.13 118.506 163.292 117.49 163.292 116.152V115.342L160.753 115.498C159.493 115.586 158.78 116.143 158.78 117.021C158.78 117.92 159.532 118.506 160.655 118.506ZM168.616 120.107C167.903 120.107 167.337 119.541 167.337 118.828C167.337 118.115 167.903 117.549 168.616 117.549C169.329 117.549 169.895 118.115 169.895 118.828C169.895 119.541 169.329 120.107 168.616 120.107ZM173.462 120.107C172.749 120.107 172.183 119.541 172.183 118.828C172.183 118.115 172.749 117.549 173.462 117.549C174.175 117.549 174.741 118.115 174.741 118.828C174.741 119.541 174.175 120.107 173.462 120.107ZM178.308 120.107C177.595 120.107 177.029 119.541 177.029 118.828C177.029 118.115 177.595 117.549 178.308 117.549C179.021 117.549 179.587 118.115 179.587 118.828C179.587 119.541 179.021 120.107 178.308 120.107Z" fill="#999999" fill-opacity="0.6"/>
<path d="M113.994 8.95312C120.176 8.95312 125.801 11.4434 128.672 15.5742C129.229 16.3652 129.287 16.541 129.287 17.3027V60.6328C129.287 61.3945 128.76 61.8633 128.115 61.8633C127.793 61.8633 127.412 61.7168 127.09 61.4531C123.984 58.7871 119.736 57.1758 115.166 57.1758C110.273 57.1758 105.381 58.8164 101.689 61.9805C101.162 62.4785 100.488 62.6836 99.7852 62.6836C98.3203 62.6836 97.4707 61.8633 97.4707 60.5156V19.1777C97.4707 18.0938 97.5 17.7129 97.8223 17.127C100.84 11.9414 107.549 8.95312 113.994 8.95312ZM148.418 8.95312C154.863 8.95312 161.572 11.9414 164.59 17.127C164.912 17.6836 164.941 18.0938 164.941 19.1777V60.5156C164.941 61.8633 164.092 62.6836 162.627 62.6836C161.924 62.6836 161.25 62.4785 160.723 61.9805C157.031 58.8164 152.139 57.1758 147.246 57.1758C142.676 57.1758 138.428 58.7871 135.322 61.4531C135.029 61.7168 134.619 61.8633 134.297 61.8633C133.652 61.8633 133.125 61.3945 133.125 60.6328V17.3027C133.125 16.541 133.184 16.3652 133.74 15.5742C136.611 11.4434 142.236 8.95312 148.418 8.95312Z" fill="#999999" fill-opacity="0.6"/>
</svg>
