<svg width="313" height="101" viewBox="0 0 313 101" fill="none" xmlns="http://www.w3.org/2000/svg">
<path d="M57.7035 96.2344C53.7191 96.2344 51.2289 93.4414 51.2289 88.9492C51.2289 84.4863 53.7484 81.6738 57.684 81.6738C60.2719 81.6738 62.3422 82.9336 63.2211 85.0137C63.3578 85.2969 63.4262 85.5898 63.4262 85.8535C63.4262 86.4395 63.0355 86.8203 62.4496 86.8203C61.932 86.8203 61.5902 86.5664 61.3461 86C60.6918 84.4277 59.3051 83.5879 57.684 83.5879C55.1254 83.5879 53.4652 85.6875 53.4652 88.9492C53.4652 92.2402 55.1059 94.3203 57.6937 94.3203C59.4125 94.3203 60.7309 93.5879 61.3852 92.0645C61.6195 91.5469 61.9027 91.332 62.3812 91.332C62.977 91.332 63.3871 91.7422 63.3871 92.3184C63.3871 92.6211 63.309 92.9043 63.1527 93.2266C62.2445 95.1309 60.3207 96.2344 57.7035 96.2344ZM66.0357 96.1855C65.401 96.1855 64.9811 95.7559 64.9811 95.0723V86.6055C64.9811 85.9609 65.3912 85.541 65.9869 85.541C66.5729 85.541 66.983 85.9609 66.983 86.6055V87.4844H67.0318C67.315 86.332 68.2623 85.5605 69.2877 85.5605C69.6588 85.5605 69.942 85.6484 70.1178 85.8145C70.3131 85.9707 70.401 86.2246 70.401 86.5566C70.401 86.8887 70.2936 87.1328 70.0885 87.2988C69.8736 87.4844 69.5611 87.5723 69.1217 87.5723C67.6764 87.582 67.0904 88.5488 67.0904 89.8281V95.0723C67.0904 95.7559 66.6607 96.1855 66.0357 96.1855ZM72.2586 84.1738C71.5848 84.1738 71.0379 83.627 71.0379 82.9629C71.0379 82.2891 71.5848 81.7617 72.2586 81.7617C72.9422 81.7617 73.4891 82.2891 73.4891 82.9629C73.4891 83.627 72.9422 84.1738 72.2586 84.1738ZM72.2586 96.1855C71.6238 96.1855 71.2039 95.7461 71.2039 95.0723V86.6641C71.2039 85.9805 71.6238 85.541 72.2586 85.541C72.8934 85.541 73.3133 85.9805 73.3133 86.6641V95.0723C73.3133 95.7461 72.8934 96.1855 72.2586 96.1855ZM79.5166 96.1953C76.4209 96.1953 74.6045 94.2324 74.6045 90.9121C74.6045 87.6504 76.46 85.541 79.3701 85.541C82.1045 85.541 83.9893 87.5137 83.9893 90.3164C83.9893 91 83.5987 91.3906 82.9444 91.3906H76.7334V91.4395C76.7334 93.3145 77.7881 94.4863 79.4678 94.4863C80.6201 94.4863 81.3428 94.0859 82.124 93.0215C82.3487 92.7578 82.5635 92.6504 82.8662 92.6504C83.374 92.6504 83.7451 92.9824 83.7451 93.5098C83.7451 93.6758 83.6865 93.8711 83.5987 94.0762C82.9248 95.4238 81.4307 96.1953 79.5166 96.1953ZM76.7432 89.916H81.8799C81.8311 88.3047 80.8252 87.2402 79.3604 87.2402C77.9053 87.2402 76.8506 88.3145 76.7432 89.916ZM92.6655 96.1953C90.644 96.1953 89.1596 95.3652 88.6713 94.1055C88.603 93.9492 88.5834 93.8027 88.5834 93.666C88.5834 93.1387 88.9643 92.8262 89.4916 92.8262C89.8432 92.8262 90.1459 92.9922 90.4096 93.3828C90.937 94.2129 91.5522 94.584 92.7729 94.584C93.9741 94.584 94.7846 94.0664 94.7846 93.2168C94.7846 92.543 94.3842 92.1816 93.2807 91.918L91.6596 91.5371C89.6674 91.0684 88.6909 90.0918 88.6909 88.627C88.6909 86.7715 90.3022 85.541 92.7436 85.541C94.5991 85.541 96.1225 86.4883 96.4155 87.6992C96.435 87.8164 96.4545 87.9141 96.4545 88.0117C96.4545 88.4805 96.1616 88.793 95.6342 88.793C95.2924 88.793 94.9897 88.6758 94.7846 88.3438C94.3256 87.5625 93.7006 87.1523 92.6655 87.1523C91.5327 87.1523 90.7514 87.709 90.7514 88.5098C90.7514 89.1543 91.2495 89.6035 92.3334 89.8574L93.9252 90.2285C96.0834 90.7266 96.9135 91.498 96.9135 93.0215C96.9135 94.9258 95.2045 96.1953 92.6655 96.1953ZM101.691 96.1855C99.4547 96.1855 98.0875 94.7305 98.0875 92.377V86.6641C98.0875 85.9609 98.5172 85.541 99.1422 85.541C99.7575 85.541 100.197 85.9609 100.197 86.6641V91.9668C100.197 93.5293 100.939 94.3691 102.394 94.3691C103.918 94.3691 104.836 93.3145 104.836 91.7129V86.6641C104.836 85.9609 105.275 85.541 105.89 85.541C106.515 85.541 106.945 85.9609 106.945 86.6641V95.1113C106.945 95.7656 106.545 96.1855 105.939 96.1855C105.334 96.1855 104.923 95.7656 104.923 95.1211V94.2617H104.875C104.308 95.4922 103.263 96.1855 101.691 96.1855ZM111.635 96.1758C109.623 96.1758 108.207 94.9258 108.207 93.0801C108.207 91.2832 109.594 90.1797 112.025 90.043L114.848 89.877V89.0859C114.848 87.9434 114.076 87.2598 112.787 87.2598C111.771 87.2598 111.098 87.6211 110.512 88.5586C110.297 88.8711 110.023 89.0078 109.652 89.0078C109.125 89.0078 108.744 88.6562 108.744 88.1289C108.744 87.9141 108.803 87.6797 108.93 87.4453C109.467 86.2832 111.019 85.541 112.865 85.541C115.355 85.541 116.947 86.8594 116.947 88.9199V95.1211C116.947 95.7852 116.527 96.1855 115.932 96.1855C115.346 96.1855 114.945 95.8047 114.926 95.1797V94.3105H114.877C114.281 95.4531 112.973 96.1758 111.635 96.1758ZM112.211 94.5059C113.685 94.5059 114.848 93.4902 114.848 92.1523V91.3418L112.308 91.498C111.049 91.5859 110.336 92.1426 110.336 93.0215C110.336 93.9199 111.088 94.5059 112.211 94.5059ZM123.299 99.6426C122.674 99.6426 122.244 99.2129 122.244 98.5195V86.625C122.244 85.9512 122.664 85.541 123.26 85.541C123.856 85.541 124.285 85.9512 124.285 86.625V87.4941H124.324C124.93 86.3125 126.112 85.5605 127.596 85.5605C130.203 85.5605 131.922 87.6113 131.922 90.8633C131.922 94.1152 130.213 96.1758 127.635 96.1758C126.16 96.1758 124.989 95.4531 124.403 94.3105H124.354V98.5195C124.354 99.2129 123.914 99.6426 123.299 99.6426ZM127.039 94.3887C128.709 94.3887 129.754 93.0215 129.754 90.8633C129.754 88.7148 128.709 87.3379 127.039 87.3379C125.428 87.3379 124.344 88.7441 124.344 90.8633C124.344 93.002 125.418 94.3887 127.039 94.3887ZM134.2 96.1855C133.565 96.1855 133.145 95.7559 133.145 95.0723V86.6055C133.145 85.9609 133.555 85.541 134.151 85.541C134.737 85.541 135.147 85.9609 135.147 86.6055V87.4844H135.196C135.479 86.332 136.426 85.5605 137.452 85.5605C137.823 85.5605 138.106 85.6484 138.282 85.8145C138.477 85.9707 138.565 86.2246 138.565 86.5566C138.565 86.8887 138.457 87.1328 138.252 87.2988C138.038 87.4844 137.725 87.5723 137.286 87.5723C135.84 87.582 135.254 88.5488 135.254 89.8281V95.0723C135.254 95.7559 134.825 96.1855 134.2 96.1855ZM140.423 84.1738C139.749 84.1738 139.202 83.627 139.202 82.9629C139.202 82.2891 139.749 81.7617 140.423 81.7617C141.106 81.7617 141.653 82.2891 141.653 82.9629C141.653 83.627 141.106 84.1738 140.423 84.1738ZM140.423 96.1855C139.788 96.1855 139.368 95.7461 139.368 95.0723V86.6641C139.368 85.9805 139.788 85.541 140.423 85.541C141.057 85.541 141.477 85.9805 141.477 86.6641V95.0723C141.477 95.7461 141.057 96.1855 140.423 96.1855ZM144.282 96.1855C143.647 96.1855 143.227 95.7461 143.227 95.0723V86.6152C143.227 85.9512 143.638 85.541 144.233 85.541C144.819 85.541 145.239 85.9414 145.239 86.6152V87.4551H145.288C145.747 86.3125 146.821 85.5508 148.208 85.5508C149.634 85.5508 150.669 86.2832 151.079 87.5625H151.128C151.655 86.3125 152.866 85.5508 154.331 85.5508C156.362 85.5508 157.69 86.8984 157.69 88.9395V95.0723C157.69 95.7461 157.261 96.1855 156.626 96.1855C155.991 96.1855 155.571 95.7461 155.571 95.0723V89.4473C155.571 88.1191 154.858 87.3574 153.608 87.3574C152.358 87.3574 151.489 88.2852 151.489 89.584V95.0723C151.489 95.7461 151.089 96.1855 150.454 96.1855C149.819 96.1855 149.419 95.7461 149.419 95.0723V89.291C149.419 88.1094 148.667 87.3574 147.475 87.3574C146.225 87.3574 145.337 88.334 145.337 89.6523V95.0723C145.337 95.7461 144.917 96.1855 144.282 96.1855ZM163.776 96.1953C160.681 96.1953 158.864 94.2324 158.864 90.9121C158.864 87.6504 160.72 85.541 163.63 85.541C166.364 85.541 168.249 87.5137 168.249 90.3164C168.249 91 167.858 91.3906 167.204 91.3906H160.993V91.4395C160.993 93.3145 162.048 94.4863 163.728 94.4863C164.88 94.4863 165.603 94.0859 166.384 93.0215C166.608 92.7578 166.823 92.6504 167.126 92.6504C167.634 92.6504 168.005 92.9824 168.005 93.5098C168.005 93.6758 167.946 93.8711 167.858 94.0762C167.185 95.4238 165.691 96.1953 163.776 96.1953ZM161.003 89.916H166.14C166.091 88.3047 165.085 87.2402 163.62 87.2402C162.165 87.2402 161.11 88.3145 161.003 89.916ZM170.605 84.1738C169.931 84.1738 169.384 83.627 169.384 82.9629C169.384 82.2891 169.931 81.7617 170.605 81.7617C171.288 81.7617 171.835 82.2891 171.835 82.9629C171.835 83.627 171.288 84.1738 170.605 84.1738ZM170.605 96.1855C169.97 96.1855 169.55 95.7461 169.55 95.0723V86.6641C169.55 85.9805 169.97 85.541 170.605 85.541C171.24 85.541 171.659 85.9805 171.659 86.6641V95.0723C171.659 95.7461 171.24 96.1855 170.605 96.1855ZM174.464 96.1855C173.83 96.1855 173.41 95.7559 173.41 95.0723V86.6055C173.41 85.9609 173.82 85.541 174.416 85.541C175.001 85.541 175.412 85.9609 175.412 86.6055V87.4844H175.46C175.744 86.332 176.691 85.5605 177.716 85.5605C178.087 85.5605 178.371 85.6484 178.546 85.8145C178.742 85.9707 178.83 86.2246 178.83 86.5566C178.83 86.8887 178.722 87.1328 178.517 87.2988C178.302 87.4844 177.99 87.5723 177.55 87.5723C176.105 87.582 175.519 88.5488 175.519 89.8281V95.0723C175.519 95.7559 175.089 96.1855 174.464 96.1855ZM182.357 96.1758C180.345 96.1758 178.929 94.9258 178.929 93.0801C178.929 91.2832 180.316 90.1797 182.748 90.043L185.57 89.877V89.0859C185.57 87.9434 184.799 87.2598 183.509 87.2598C182.494 87.2598 181.82 87.6211 181.234 88.5586C181.019 88.8711 180.746 89.0078 180.375 89.0078C179.847 89.0078 179.467 88.6562 179.467 88.1289C179.467 87.9141 179.525 87.6797 179.652 87.4453C180.189 86.2832 181.742 85.541 183.588 85.541C186.078 85.541 187.67 86.8594 187.67 88.9199V95.1211C187.67 95.7852 187.25 96.1855 186.654 96.1855C186.068 96.1855 185.668 95.8047 185.648 95.1797V94.3105H185.599C185.004 95.4531 183.695 96.1758 182.357 96.1758ZM182.933 94.5059C184.408 94.5059 185.57 93.4902 185.57 92.1523V91.3418L183.031 91.498C181.771 91.5859 181.058 92.1426 181.058 93.0215C181.058 93.9199 181.81 94.5059 182.933 94.5059ZM197.361 96.1953C194.422 96.1953 192.508 94.1543 192.508 90.8828C192.508 87.6309 194.412 85.541 197.342 85.541C199.324 85.541 201.024 86.5957 201.473 88.0312C201.531 88.1973 201.57 88.373 201.57 88.5195C201.57 89.0566 201.19 89.3887 200.672 89.3887C200.223 89.3887 199.969 89.2129 199.715 88.7441C199.188 87.7676 198.465 87.2988 197.381 87.2988C195.731 87.2988 194.656 88.6758 194.656 90.8633C194.656 93.0996 195.75 94.4277 197.381 94.4277C198.524 94.4277 199.217 93.9199 199.715 93.0312C200.008 92.5234 200.233 92.3477 200.692 92.3477C201.209 92.3477 201.59 92.6992 201.59 93.2266C201.59 93.3926 201.551 93.5684 201.473 93.7734C200.936 95.1895 199.266 96.1953 197.361 96.1953ZM207.305 96.1953C204.366 96.1953 202.432 94.1738 202.432 90.8633C202.432 87.5625 204.375 85.541 207.305 85.541C210.235 85.541 212.178 87.5625 212.178 90.8633C212.178 94.1738 210.244 96.1953 207.305 96.1953ZM207.305 94.457C208.965 94.457 210.03 93.1484 210.03 90.8633C210.03 88.5879 208.955 87.2793 207.305 87.2793C205.655 87.2793 204.58 88.5879 204.58 90.8633C204.58 93.1484 205.655 94.457 207.305 94.457ZM214.534 96.1855C213.919 96.1855 213.479 95.7656 213.479 95.0723V82.8359C213.479 82.1426 213.919 81.7227 214.534 81.7227C215.149 81.7227 215.588 82.1426 215.588 82.8359V95.0723C215.588 95.7656 215.149 96.1855 214.534 96.1855ZM221.802 96.1953C218.706 96.1953 216.889 94.2324 216.889 90.9121C216.889 87.6504 218.745 85.541 221.655 85.541C224.389 85.541 226.274 87.5137 226.274 90.3164C226.274 91 225.884 91.3906 225.229 91.3906H219.018V91.4395C219.018 93.3145 220.073 94.4863 221.753 94.4863C222.905 94.4863 223.628 94.0859 224.409 93.0215C224.634 92.7578 224.848 92.6504 225.151 92.6504C225.659 92.6504 226.03 92.9824 226.03 93.5098C226.03 93.6758 225.971 93.8711 225.884 94.0762C225.21 95.4238 223.716 96.1953 221.802 96.1953ZM219.028 89.916H224.165C224.116 88.3047 223.11 87.2402 221.645 87.2402C220.19 87.2402 219.136 88.3145 219.028 89.916ZM231.823 100.541C231.472 100.541 231.188 100.521 230.964 100.463C230.524 100.375 230.319 100.18 230.319 99.877C230.319 99.584 230.534 99.4082 230.876 99.4082C231.081 99.4082 231.286 99.457 231.579 99.457C232.321 99.457 232.722 99.2324 232.722 98.8027C232.722 98.4121 232.351 98.2168 231.599 98.2168H231.354C230.964 98.2168 230.7 98.002 230.7 97.6797C230.7 97.5332 230.739 97.3867 230.827 97.1914L231.257 96.1562C228.688 95.8828 227.048 93.9102 227.048 90.8828C227.048 87.6309 228.952 85.541 231.882 85.541C233.864 85.541 235.563 86.5957 236.013 88.0312C236.071 88.1973 236.11 88.373 236.11 88.5195C236.11 89.0566 235.729 89.3887 235.212 89.3887C234.763 89.3887 234.509 89.2129 234.255 88.7441C233.728 87.7676 233.005 87.2988 231.921 87.2988C230.27 87.2988 229.196 88.6758 229.196 90.8633C229.196 93.0996 230.29 94.4277 231.921 94.4277C233.063 94.4277 233.757 93.9199 234.255 93.0312C234.548 92.5234 234.772 92.3477 235.231 92.3477C235.749 92.3477 236.13 92.6992 236.13 93.2266C236.13 93.3926 236.091 93.5684 236.013 93.7734C235.544 95.0039 234.206 95.9316 232.604 96.1465L232.145 97.2012C233.347 97.2109 234.138 97.7773 234.138 98.7734C234.138 99.916 233.151 100.541 231.823 100.541ZM239.032 84.3594C238.642 84.3594 238.398 84.1055 238.398 83.6855C238.398 82.3867 239.237 81.5664 240.351 81.5664C241.708 81.5664 242.167 82.9922 242.89 82.9922C243.241 82.9922 243.437 82.7285 243.544 82.1035C243.622 81.6445 243.798 81.4297 244.189 81.4297C244.57 81.4297 244.823 81.6934 244.823 82.1035C244.823 83.3633 243.974 84.2324 242.909 84.2324C241.601 84.2324 241.103 82.8066 240.37 82.8066C239.96 82.8066 239.765 83.0605 239.677 83.7344C239.618 84.1445 239.413 84.3594 239.032 84.3594ZM240.439 96.1758C238.427 96.1758 237.011 94.9258 237.011 93.0801C237.011 91.2832 238.398 90.1797 240.829 90.043L243.652 89.877V89.0859C243.652 87.9434 242.88 87.2598 241.591 87.2598C240.575 87.2598 239.902 87.6211 239.316 88.5586C239.101 88.8711 238.827 89.0078 238.456 89.0078C237.929 89.0078 237.548 88.6562 237.548 88.1289C237.548 87.9141 237.607 87.6797 237.734 87.4453C238.271 86.2832 239.823 85.541 241.669 85.541C244.159 85.541 245.751 86.8594 245.751 88.9199V95.1211C245.751 95.7852 245.331 96.1855 244.736 96.1855C244.15 96.1855 243.749 95.8047 243.73 95.1797V94.3105H243.681C243.085 95.4531 241.777 96.1758 240.439 96.1758ZM241.015 94.5059C242.489 94.5059 243.652 93.4902 243.652 92.1523V91.3418L241.112 91.498C239.853 91.5859 239.14 92.1426 239.14 93.0215C239.14 93.9199 239.892 94.5059 241.015 94.5059ZM251.808 96.1953C248.869 96.1953 246.935 94.1738 246.935 90.8633C246.935 87.5625 248.878 85.541 251.808 85.541C254.738 85.541 256.681 87.5625 256.681 90.8633C256.681 94.1738 254.747 96.1953 251.808 96.1953ZM251.808 94.457C253.468 94.457 254.533 93.1484 254.533 90.8633C254.533 88.5879 253.458 87.2793 251.808 87.2793C250.158 87.2793 249.083 88.5879 249.083 90.8633C249.083 93.1484 250.158 94.457 251.808 94.457ZM259.701 91.4785C259.105 91.4785 258.773 91.0977 258.754 90.4824L258.636 82.9043C258.636 82.8652 258.636 82.8262 258.636 82.7969C258.636 82.1426 259.076 81.7227 259.711 81.7227C260.336 81.7227 260.775 82.1426 260.775 82.7969C260.775 82.8262 260.775 82.8652 260.775 82.9043L260.658 90.4824C260.638 91.0977 260.306 91.4785 259.701 91.4785ZM259.701 96.1465C258.988 96.1465 258.421 95.5996 258.421 94.8867C258.421 94.1738 258.988 93.627 259.701 93.627C260.433 93.627 260.99 94.1738 260.99 94.8867C260.99 95.5996 260.433 96.1465 259.701 96.1465Z" fill="#999999" fill-opacity="0.6"/>
<path d="M138.994 8.95312C145.176 8.95312 150.801 11.4434 153.672 15.5742C154.229 16.3652 154.287 16.541 154.287 17.3027V60.6328C154.287 61.3945 153.76 61.8633 153.115 61.8633C152.793 61.8633 152.412 61.7168 152.09 61.4531C148.984 58.7871 144.736 57.1758 140.166 57.1758C135.273 57.1758 130.381 58.8164 126.689 61.9805C126.162 62.4785 125.488 62.6836 124.785 62.6836C123.32 62.6836 122.471 61.8633 122.471 60.5156V19.1777C122.471 18.0938 122.5 17.7129 122.822 17.127C125.84 11.9414 132.549 8.95312 138.994 8.95312ZM173.418 8.95312C179.863 8.95312 186.572 11.9414 189.59 17.127C189.912 17.6836 189.941 18.0938 189.941 19.1777V60.5156C189.941 61.8633 189.092 62.6836 187.627 62.6836C186.924 62.6836 186.25 62.4785 185.723 61.9805C182.031 58.8164 177.139 57.1758 172.246 57.1758C167.676 57.1758 163.428 58.7871 160.322 61.4531C160.029 61.7168 159.619 61.8633 159.297 61.8633C158.652 61.8633 158.125 61.3945 158.125 60.6328V17.3027C158.125 16.541 158.184 16.3652 158.74 15.5742C161.611 11.4434 167.236 8.95312 173.418 8.95312Z" fill="#999999" fill-opacity="0.6"/>
</svg>
